<svg width="383" height="449" viewBox="0 0 383 449" fill="none" xmlns="http://www.w3.org/2000/svg">
<path d="M144.39 158.88V314.25H125.218V158.88H144.39ZM114.636 0.200012H268.026C287.198 0.200012 292.487 14.747 292.487 31.274H368.518C386.37 31.274 387.03 69.622 368.518 69.622H353.971V379.042C353.971 417.39 322.897 448.464 284.549 448.464H98.099C59.751 448.464 28.677 417.39 28.677 379.042V69.622H14.13C-4.38199 69.622 -3.72199 31.274 14.13 31.274H90.161C90.161 15.407 96.1102 0.200012 114.622 0.200012H114.636ZM268.026 19.372H114.636C108.023 19.372 109.347 26.6454 109.347 30.61H273.317C273.317 25.9811 274.641 19.372 268.028 19.372H268.026ZM321.581 68.958H61.741V378.378C61.741 398.874 78.268 415.401 98.764 415.401H285.214C305.71 415.401 322.237 398.874 322.237 378.378V68.958H321.581ZM201.251 126.478V345.978H182.079V126.478H201.251ZM257.45 158.876V314.246H238.278V158.876H257.45Z" fill="#FF0000"/>
</svg>
