<svg width="532" height="532" viewBox="0 0 532 532" fill="none" xmlns="http://www.w3.org/2000/svg">
<path d="M532 266C532 119.28 412.72 0 266 0C119.28 0 0 119.28 0 266C0 412.72 119.28 532 266 532C412.72 532 532 412.72 532 266ZM38.08 266C38.08 140.56 140.56 38.08 266 38.08C391.44 38.08 493.92 140.56 493.92 266C493.92 391.44 391.44 493.92 266 493.92C140.56 493.92 38.08 391.44 38.08 266V266Z" fill="black"/>
<path d="M341.6 279.44C344.959 276.081 347.202 271.042 347.202 265.999C347.202 260.96 344.963 255.921 341.6 252.558L239.12 150.078C231.839 142.797 219.518 142.797 212.241 150.078C204.96 157.359 204.96 169.68 212.241 176.957L300.718 266L212.238 354.48C208.316 358.402 206.636 362.878 206.636 367.921C206.636 372.96 208.316 377.999 212.238 381.362C219.519 388.643 231.84 388.643 239.117 381.362L341.6 279.44Z" fill="black"/>
</svg>
