<svg width="446" height="452" viewBox="0 0 446 452" fill="none" xmlns="http://www.w3.org/2000/svg">
<path d="M424.11 272.55C411.52 275.14 398.692 276.429 385.837 276.398C334.802 276.343 285.872 256.046 249.787 219.957C213.697 183.867 193.4 134.937 193.342 83.8967C193.276 63.4397 196.569 43.1077 203.092 23.7167C205.084 17.7948 203.772 11.2637 199.651 6.5717C195.526 1.8803 189.213 -0.256395 183.089 0.966205C130.597 11.5952 83.5376 40.4042 50.1986 82.3182C16.8586 124.232 -0.625397 176.564 0.823603 230.108C2.2767 283.643 22.5656 334.958 58.1286 374.998C93.6916 415.038 142.242 441.26 195.229 449.033C248.221 456.803 302.249 445.631 347.819 417.478C393.381 389.33 427.553 346.005 444.315 295.138C446.264 289.205 444.901 282.677 440.737 278.017C436.572 273.357 430.236 271.275 424.119 272.548L424.11 272.55Z" fill="white"/>
</svg>
