<svg width="526" height="526" viewBox="0 0 526 526" fill="none" xmlns="http://www.w3.org/2000/svg">
<path fill-rule="evenodd" clip-rule="evenodd" d="M261.93 102.72C350.66 102.72 422.7 174.751 422.7 263.49C422.7 352.229 350.665 424.26 261.93 424.26C173.196 424.26 101.16 352.229 101.16 263.49C101.16 174.751 173.195 102.72 261.93 102.72V102.72ZM161.45 308.7C154.376 308.7 148.126 304.067 146.075 297.298C143.032 286.556 141.352 275.212 141.352 263.486C141.352 196.939 195.379 142.916 261.932 142.916C269.003 142.916 275.252 147.549 277.303 154.318C280.346 165.06 282.026 176.404 282.026 188.13C282.026 254.677 227.999 308.7 161.456 308.7H161.45Z" fill="white"/>
<path fill-rule="evenodd" clip-rule="evenodd" d="M419.17 77.871L392.826 104.219C384.654 112.387 384.654 125.645 392.826 133.817C400.994 141.989 414.252 141.989 422.424 133.817L448.768 107.473C456.94 99.3011 456.948 86.035 448.776 77.868C440.604 69.6961 427.342 69.7039 419.171 77.8719L419.17 77.871Z" fill="white"/>
<path fill-rule="evenodd" clip-rule="evenodd" d="M102.19 394.86L77.549 419.501C69.3771 427.669 69.3771 440.927 77.549 449.099C85.7209 457.271 98.979 457.271 107.147 449.099L131.788 424.458C139.96 416.286 139.96 403.028 131.788 394.86C123.616 386.688 110.358 386.688 102.19 394.86Z" fill="white"/>
<path fill-rule="evenodd" clip-rule="evenodd" d="M447.54 419.36L422.556 394.38C414.396 386.216 401.13 386.208 392.958 394.38C384.786 402.552 384.794 415.814 392.958 423.978L417.938 448.958C426.11 457.13 439.376 457.138 447.543 448.966C455.715 440.798 455.707 427.532 447.539 419.361L447.54 419.36Z" fill="white"/>
<path fill-rule="evenodd" clip-rule="evenodd" d="M131.4 103.21L106.056 77.866C97.8841 69.698 84.618 69.6902 76.451 77.8582C68.2791 86.0301 68.2869 99.2962 76.4549 107.467L101.799 132.811C109.971 140.979 123.229 140.979 131.401 132.811C139.569 124.639 139.569 111.381 131.401 103.209L131.4 103.21Z" fill="white"/>
<path fill-rule="evenodd" clip-rule="evenodd" d="M504.56 242.94H467.302C455.747 242.94 446.372 252.315 446.372 263.87C446.372 275.425 455.747 284.8 467.302 284.8H504.56C516.115 284.8 525.501 275.425 525.501 263.87C525.501 252.315 516.114 242.94 504.56 242.94Z" fill="white"/>
<path fill-rule="evenodd" clip-rule="evenodd" d="M56.28 242.94H21.432C9.877 242.94 0.501999 252.315 0.501999 263.87C0.501999 275.425 9.877 284.8 21.432 284.8H56.28C67.835 284.8 77.21 275.425 77.21 263.87C77.21 252.315 67.835 242.94 56.28 242.94V242.94Z" fill="white"/>
<path fill-rule="evenodd" clip-rule="evenodd" d="M283.16 504.46V469.132C283.16 457.585 273.785 448.202 262.23 448.202C250.671 448.202 241.3 457.585 241.3 469.132V504.46C241.3 516.015 250.671 525.401 262.23 525.401C273.785 525.401 283.16 516.014 283.16 504.46Z" fill="white"/>
<path fill-rule="evenodd" clip-rule="evenodd" d="M283.16 57.375V21.535C283.16 9.97599 273.785 0.593994 262.23 0.593994C250.671 0.593994 241.3 9.97679 241.3 21.535V57.375C241.3 68.93 250.671 78.305 262.23 78.305C273.785 78.305 283.16 68.93 283.16 57.375Z" fill="white"/>
</svg>
